<?xml version="1.0" encoding="UTF-8"?>
<svg height="300" width="300" xmlns="http://www.w3.org/2000/svg" xmlns:ev="http://www.w3.org/2001/xml-events" xmlns:xlink="http://www.w3.org/1999/xlink">
        <defs>
            <g data-layout="0" data-type="fractal" id="l0rec0">
                <line class="frdef" stroke="none" x1="0" x2="100" y1="100" y2="100"/>
                <line class="frline" x1="0" x2="100" y1="100" y2="100"/>
                <line class="frline" x1="80.90169943749474" x2="0" y1="41.221474770752685" y2="100"/>
                <line class="frline" x1="100" x2="19.09830056250526" y1="100" y2="41.221474770752685"/>
                <line class="frline" x1="19.09830056250526" x2="50" y1="41.221474770752685" y2="136.32712640026804"/>
                <line class="frline" x1="50" x2="80.90169943749474" y1="136.32712640026804" y2="41.221474770752685"/>
            </g>
            <g data-layout="0" data-recursion="1" id="l0rec1">
                <use class="frline" transform="matrix(-0.245000,-0.754032,0.754032,-0.245000,-40.545079,121.101769)" xlink:href="#l0rec0"/>
                <use class="frline" transform="matrix(0.792837,0.000000,0.000000,0.792837,10.358167,-58.085143)" xlink:href="#l0rec0"/>
                <use class="frline" transform="matrix(-0.245000,0.754032,-0.754032,-0.245000,165.045079,45.698523)" xlink:href="#l0rec0"/>
                <use class="frline" transform="matrix(-0.641418,-0.466018,0.466018,-0.641418,18.540063,160.743602)" xlink:href="#l0rec0"/>
                <use class="frline" transform="matrix(0.641418,-0.466018,0.466018,0.641418,-45.601769,-14.141833)" xlink:href="#l0rec0"/>
                <use class="frline" transform="matrix(0.245000,0.754032,-0.754032,0.245000,140.545079,-21.101769)" xlink:href="#l0rec0"/>
                <use class="frline" transform="matrix(-0.792837,0.000000,-0.000000,-0.792837,89.641833,158.085143)" xlink:href="#l0rec0"/>
                <use class="frline" transform="matrix(0.245000,-0.754032,0.754032,0.245000,-65.045079,54.301477)" xlink:href="#l0rec0"/>
                <use class="frline" transform="matrix(0.641418,0.466018,-0.466018,0.641418,81.459937,-60.743602)" xlink:href="#l0rec0"/>
                <use class="frline" transform="matrix(-0.641418,0.466018,-0.466018,-0.641418,145.601769,114.141833)" xlink:href="#l0rec0"/>
            </g>
            <g data-layout="0" data-recursion="2" id="fractal0">
                <use class="frline" transform="matrix(1.261294,0.000000,0.000000,1.261294,-43.966392,-63.064693)" xlink:href="#l0rec1"/>
                <use class="frline" transform="matrix(-1.020408,0.741370,-0.741370,-1.020408,188.088904,72.730437)" xlink:href="#l0rec1"/>
                <use class="frline" transform="matrix(-1.020408,-0.741370,0.741370,-1.020408,63.951912,183.194556)" xlink:href="#l0rec1"/>
                <use class="frline" transform="matrix(0.389761,1.199562,-1.199562,0.389761,121.391725,-79.466149)" xlink:href="#l0rec1"/>
                <use class="frline" transform="matrix(0.389761,-1.199562,1.199562,0.389761,-79.466149,99.268550)" xlink:href="#l0rec1"/>
            </g>
        </defs>
        <g id="titles">
            <title data-layout="0" data-name="penta" data-recursion="0">Star</title>
            <title data-layout="0" data-name="star_10_3" data-recursion="1">
    {10,3} Star
  </title>
            <title data-layout="0" data-name="penta" data-recursion="2">Star</title>
        </g>
        <g id="main">
            <use id="ff0" stroke="black" stroke-width="4" transform="translate(100,100) scale(1)" xlink:href="#fractal0"/>
        </g>
    </svg>
